# xmcd
#
# Track frame offsets:
#	150
#	16601
#	30217
#	41490
#	55077
#	69468
#	86819
#	113426
#	126838
#	143222
#	156494
#	168191
#	181606
#	198100
#	211935
#	227952
#	239885
#	253099
#	262159
#	276083
#
# Disc length: 3868 seconds
#
# Revision: 1
# Processed by: cddbd v1.5.2PL0 Copyright (c) Steve Scherf et al.
# Submitted via: audiograbber 1.83.01
#
DISCID=120f1a14
DTITLE=окои ои яелптетес тоу мтоумиа - ока та яелптеийа - CD 8
DYEAR=1900
DGENRE=яелпетийо
TTITLE0=стекиос йафамтфидгс - гкиобасикела сысто
TTITLE1=сытгяиа лпеккоу - фоуса ломавос выяис ацапг
TTITLE2=цкуйеяиа - сйеятсопетавто
TTITLE3=лпалпгс цйокес - емас диабатгс
TTITLE4=ацахымас иайыбидгс - дуо вяомиа ле йокайеуес
TTITLE5=вомтяомайос, лаяиы - о лацйас невыяифеи
TTITLE6=ливакгс дасйакайгс - амтикакоум ои жукайес
TTITLE7=спуяос фацояаиос - стоу ваяойопоу та стема
TTITLE8=аподглг йолпамиа - докожомисса
TTITLE9=вомтяомайос, лаяиы - йатеяима хессакомийиа
TTITLE10=лаяйос балбайаягс - паье ма лоу йамеис тгм папиа
TTITLE11=ваяа елламоугк, циыяцос сидеягс - ха соу жуцы ле йаияо
TTITLE12=тайгс лпимгс - ам лоу жеяхеис амакоца
TTITLE13=циаммгс акенамдягс - тяекг поу хекеис ма ле стежамысеис
TTITLE14=ливакгс цемитсаягс - палеимымта еяытиаяг
TTITLE15=циаммгс йуяиафгс - то йояоидо
TTITLE16=сожиа диаламтг, циыяцос лоужкоуфекгс - лацйа ма 'веис сто пкеуяо соу
TTITLE17=дглгтягс еустахиоу - ьгка стгм покуйатоийиа
TTITLE18=стеккайгс пеяпимиадгс - йоуйки тгс йоййимиас
TTITLE19=йыстас яоуйоумас - о пийимос
EXTD=
EXTT0=
EXTT1=
EXTT2=
EXTT3=
EXTT4=
EXTT5=
EXTT6=
EXTT7=
EXTT8=
EXTT9=
EXTT10=
EXTT11=
EXTT12=
EXTT13=
EXTT14=
EXTT15=
EXTT16=
EXTT17=
EXTT18=
EXTT19=
PLAYORDER=
